<svg width="390" height="360" viewBox="0 0 390 360" fill="none" xmlns="http://www.w3.org/2000/svg">
<g id="Cards">
<g id="Elefy card">
<g clip-path="url(#clip0_3281_1457)">
<rect width="343.811" height="199.89" rx="16" transform="matrix(0.868829 -0.495112 0.868829 0.495112 116.999 151.405)" fill="#E5E5E5"/>
<g id="Left">
<rect width="80" height="199.89" transform="matrix(0.868829 -0.495112 0.868829 0.495112 116.999 151.405)" fill="#171717"/>
<path id="Elefy" d="M160.682 157.209L150.572 151.447L156.911 147.835L158.224 148.583L153.411 151.326L156.491 153.082L160.973 150.527L162.282 151.273L157.799 153.827L160.894 155.591L165.767 152.814L167.08 153.563L160.682 157.209ZM160.306 145.9L170.416 151.662L168.94 152.503L158.83 146.742L160.306 145.9ZM175.822 148.755C175.075 149.181 174.272 149.456 173.413 149.582C172.554 149.704 171.687 149.682 170.812 149.517C169.936 149.349 169.105 149.04 168.319 148.592C167.542 148.149 167.002 147.677 166.7 147.174C166.4 146.67 166.346 146.174 166.537 145.686C166.731 145.196 167.18 144.751 167.884 144.35C168.312 144.106 168.798 143.91 169.341 143.762C169.884 143.614 170.466 143.535 171.088 143.525C171.71 143.516 172.355 143.597 173.023 143.767C173.688 143.936 174.365 144.217 175.052 144.608L175.576 144.907L169.548 148.341L168.442 147.711L173.023 145.101C172.635 144.879 172.212 144.728 171.755 144.648C171.294 144.565 170.833 144.556 170.372 144.62C169.915 144.682 169.495 144.821 169.114 145.039C168.699 145.275 168.439 145.54 168.334 145.832C168.228 146.121 168.255 146.406 168.413 146.687C168.571 146.965 168.839 147.212 169.217 147.427L170.081 147.92C170.588 148.208 171.108 148.403 171.641 148.505C172.178 148.604 172.701 148.615 173.211 148.538C173.718 148.46 174.187 148.297 174.618 148.052C174.898 147.892 175.113 147.724 175.265 147.548C175.413 147.37 175.49 147.187 175.497 147C175.503 146.812 175.432 146.625 175.284 146.44L176.933 145.787C177.233 146.085 177.392 146.405 177.412 146.746C177.432 147.084 177.31 147.425 177.047 147.77C176.783 148.112 176.375 148.44 175.822 148.755ZM176.586 139.503L177.771 140.178L173.486 142.62L172.301 141.945L176.586 139.503ZM181.059 145.597L172.598 140.775C172.124 140.505 171.834 140.222 171.729 139.925C171.62 139.627 171.66 139.336 171.847 139.053C172.032 138.768 172.324 138.511 172.726 138.282C173.022 138.114 173.3 137.983 173.56 137.891C173.817 137.798 174.016 137.733 174.158 137.697L175.007 138.575C174.918 138.603 174.806 138.641 174.671 138.688C174.533 138.733 174.386 138.799 174.232 138.887C173.873 139.092 173.705 139.289 173.728 139.478C173.754 139.666 173.935 139.855 174.271 140.046L182.535 144.755L181.059 145.597ZM189.468 144.045C189.248 144.171 189.029 144.275 188.812 144.357C188.598 144.442 188.427 144.498 188.298 144.526L187.444 143.634C187.787 143.522 188.058 143.403 188.259 143.277C188.46 143.151 188.566 143.001 188.58 142.824C188.596 142.646 188.499 142.426 188.288 142.163L187.968 141.772L177.512 138.976L179.092 138.076L186.896 140.335L186.975 140.29L183.011 135.842L184.596 134.939L190.066 141.617C190.316 141.925 190.465 142.22 190.515 142.504C190.567 142.789 190.508 143.059 190.337 143.314C190.166 143.569 189.876 143.813 189.468 144.045Z" fill="white"/>
<g id="content">
<rect width="72" height="48" rx="24" transform="matrix(0.868829 -0.495112 0.868829 0.495112 250.703 209.774)" fill="#171717"/>
<g id="Exclude">
<path d="M316.588 211.671C317.493 207.534 315.142 203.198 309.544 200.008C303.946 196.818 296.338 195.479 289.078 195.994C288.173 200.131 290.524 204.467 296.122 207.657C301.72 210.847 309.328 212.187 316.588 211.671Z" fill="#FF5F00"/>
<path fill-rule="evenodd" clip-rule="evenodd" d="M316.588 211.671C309.328 212.187 301.72 210.847 296.122 207.657C290.524 204.467 288.173 200.131 289.078 195.994C283.891 196.362 278.882 197.677 274.911 199.94C265.38 205.371 265.434 214.207 275.03 219.676C284.627 225.145 300.133 225.176 309.664 219.744C313.635 217.481 315.942 214.627 316.588 211.671Z" fill="#EB001B"/>
<path d="M309.544 200.008C315.142 203.198 317.493 207.534 316.588 211.671C321.775 211.303 326.784 209.988 330.755 207.725C340.286 202.294 340.232 193.458 330.636 187.989C321.039 182.52 305.533 182.49 296.002 187.921C292.031 190.184 289.724 193.038 289.078 195.994C296.338 195.479 303.946 196.818 309.544 200.008Z" fill="#F79E1B"/>
</g>
</g>
</g>
<g id="Right" clip-path="url(#clip1_3281_1457)">
<path id="Ivan Passos" d="M225.079 108.989L235.189 114.75L233.664 115.619L223.554 109.858L225.079 108.989ZM236.196 105.534L241.029 111.422L239.449 112.322L229.112 109.571L230.697 108.668L238.452 110.899L238.531 110.854L234.612 106.437L236.196 105.534ZM247.323 108.026C246.843 108.3 246.319 108.497 245.753 108.617C245.184 108.735 244.615 108.762 244.045 108.696C243.479 108.628 242.948 108.453 242.451 108.17C242.023 107.926 241.753 107.679 241.641 107.427C241.529 107.176 241.533 106.925 241.651 106.673C241.77 106.422 241.96 106.174 242.224 105.931C242.487 105.687 242.777 105.451 243.093 105.222C243.494 104.933 243.82 104.699 244.07 104.518C244.317 104.337 244.465 104.187 244.514 104.068C244.564 103.95 244.499 103.841 244.322 103.739L244.287 103.72C243.856 103.474 243.4 103.353 242.92 103.357C242.443 103.359 241.965 103.495 241.488 103.767C240.991 104.051 240.71 104.337 240.644 104.625C240.578 104.91 240.624 105.16 240.782 105.374L239.079 105.984C238.783 105.628 238.651 105.279 238.684 104.938C238.717 104.593 238.877 104.265 239.163 103.956C239.446 103.645 239.816 103.359 240.274 103.098C240.577 102.925 240.934 102.763 241.345 102.611C241.756 102.456 242.204 102.347 242.688 102.285C243.175 102.221 243.688 102.234 244.228 102.324C244.764 102.412 245.309 102.614 245.862 102.929L250.897 105.798L249.456 106.62L248.419 106.029L248.36 106.063C248.455 106.226 248.5 106.415 248.493 106.628C248.487 106.842 248.394 107.069 248.217 107.309C248.039 107.549 247.741 107.788 247.323 108.026ZM246.459 107.168C246.867 106.936 247.136 106.691 247.264 106.434C247.396 106.175 247.407 105.929 247.298 105.694C247.19 105.456 246.986 105.252 246.686 105.081L245.709 104.524C245.709 104.584 245.656 104.67 245.551 104.783C245.446 104.892 245.314 105.01 245.156 105.137C244.995 105.263 244.837 105.385 244.682 105.503C244.524 105.619 244.392 105.717 244.287 105.796C244.037 105.979 243.836 106.163 243.685 106.347C243.537 106.529 243.473 106.706 243.492 106.879C243.512 107.047 243.654 107.207 243.917 107.357C244.282 107.565 244.694 107.646 245.151 107.599C245.605 107.55 246.041 107.407 246.459 107.168ZM249.837 101.271L254.339 103.837L252.863 104.678L245.281 100.357L246.697 99.5498L247.932 100.253L248.025 100.2C247.798 99.8714 247.749 99.532 247.877 99.1813C248.009 98.8287 248.359 98.4902 248.929 98.1657C249.445 97.8713 250.007 97.6753 250.612 97.5778C251.214 97.4784 251.835 97.4887 252.473 97.6087C253.112 97.7287 253.744 97.9669 254.369 98.3232L259.192 101.072L257.716 101.913L253.07 99.2656C252.521 98.9525 251.948 98.7893 251.353 98.7762C250.754 98.7612 250.204 98.8962 249.704 99.1813C249.362 99.3763 249.131 99.592 249.013 99.8283C248.897 100.063 248.906 100.306 249.037 100.557C249.169 100.804 249.436 101.043 249.837 101.271ZM264.969 97.7796L254.859 92.0183L258.462 89.9647C259.249 89.5165 260.044 89.2267 260.847 89.0955C261.65 88.9642 262.428 88.967 263.182 89.1039C263.932 89.2389 264.617 89.4827 265.235 89.8353C265.857 90.1898 266.287 90.5827 266.524 91.014C266.761 91.4416 266.764 91.8861 266.534 92.3474C266.303 92.8051 265.796 93.257 265.013 93.7034L262.535 95.1156L261.242 94.3785L263.582 93.0451C264.079 92.7619 264.396 92.4834 264.534 92.2096C264.669 91.9339 264.659 91.6695 264.505 91.4163C264.35 91.1631 264.082 90.9278 263.7 90.7102C263.318 90.4927 262.907 90.3407 262.466 90.2545C262.025 90.1682 261.564 90.1663 261.084 90.2488C260.607 90.3295 260.115 90.5142 259.608 90.803L257.692 91.8945L266.494 96.9104L264.969 97.7796ZM276.049 91.6568C275.568 91.9306 275.045 92.1276 274.479 92.2476C273.91 92.3657 273.34 92.392 272.771 92.3263C272.205 92.2588 271.673 92.0835 271.176 91.8003C270.749 91.5565 270.479 91.3089 270.367 91.0576C270.255 90.8063 270.258 90.555 270.377 90.3037C270.495 90.0524 270.686 89.8048 270.949 89.561C271.213 89.3172 271.502 89.0809 271.818 88.8521C272.22 88.5633 272.546 88.3289 272.796 88.1488C273.042 87.9669 273.191 87.8169 273.24 87.6987C273.289 87.5806 273.225 87.4709 273.047 87.3696L273.013 87.3499C272.582 87.1042 272.126 86.9833 271.645 86.987C271.168 86.9889 270.691 87.1258 270.214 87.3977C269.717 87.6809 269.436 87.9669 269.37 88.2557C269.304 88.5408 269.35 88.7902 269.508 89.004L267.805 89.6145C267.509 89.2582 267.377 88.9093 267.41 88.568C267.443 88.2229 267.602 87.8957 267.889 87.5862C268.172 87.2749 268.542 86.9889 268.999 86.7282C269.302 86.5557 269.659 86.3934 270.071 86.2415C270.482 86.0859 270.93 85.9771 271.413 85.9152C271.9 85.8514 272.414 85.8646 272.954 85.9546C273.49 86.0427 274.035 86.2444 274.588 86.5594L279.623 89.4288L278.181 90.2503L277.145 89.6595L277.085 89.6933C277.181 89.8564 277.225 90.0449 277.219 90.2587C277.212 90.4725 277.12 90.6994 276.942 90.9395C276.765 91.1795 276.467 91.4186 276.049 91.6568ZM275.185 90.7988C275.593 90.5663 275.861 90.3215 275.99 90.0646C276.121 89.8058 276.133 89.5592 276.024 89.3247C275.916 89.0866 275.711 88.8821 275.412 88.7115L274.435 88.1545C274.435 88.2145 274.382 88.3008 274.277 88.4133C274.171 88.5221 274.04 88.6402 273.882 88.7677C273.72 88.8934 273.562 89.0153 273.408 89.1334C273.25 89.2497 273.118 89.3472 273.013 89.426C272.763 89.6098 272.562 89.7936 272.411 89.9774C272.262 90.1593 272.198 90.3365 272.218 90.5091C272.238 90.6779 272.379 90.8373 272.643 90.9873C273.008 91.1955 273.419 91.2761 273.877 91.2292C274.331 91.1805 274.767 91.037 275.185 90.7988ZM281.539 81.8045L280.439 82.7019C280.212 82.6363 279.96 82.5941 279.683 82.5753C279.41 82.5547 279.122 82.5744 278.819 82.6344C278.517 82.6944 278.212 82.8116 277.906 82.986C277.488 83.2242 277.233 83.4765 277.141 83.7428C277.046 84.0072 277.144 84.2229 277.437 84.3898C277.691 84.5342 277.988 84.597 278.331 84.5783C278.673 84.5595 279.102 84.4592 279.619 84.2773L281.1 83.7484C281.959 83.4427 282.728 83.288 283.405 83.2842C284.083 83.2805 284.691 83.4315 285.227 83.7371C285.681 83.996 285.954 84.3016 286.047 84.6542C286.139 85.0031 286.051 85.3678 285.785 85.7485C285.522 86.1274 285.084 86.4912 284.472 86.84C283.623 87.3239 282.749 87.6155 281.85 87.7149C280.949 87.8124 280.101 87.7046 279.308 87.3914L280.518 86.4546C280.978 86.6159 281.442 86.6722 281.91 86.6234C282.374 86.5728 282.828 86.4209 283.272 86.1677C283.756 85.892 284.042 85.6144 284.131 85.335C284.217 85.0537 284.113 84.8296 283.82 84.6627C283.583 84.5276 283.295 84.4648 282.956 84.4742C282.621 84.4817 282.231 84.5651 281.786 84.7246L280.221 85.2956C279.353 85.6069 278.573 85.7589 277.881 85.7513C277.194 85.742 276.58 85.5835 276.04 85.2759C275.593 85.0209 275.326 84.7264 275.24 84.3926C275.155 84.0588 275.239 83.7128 275.492 83.3546C275.742 82.9945 276.152 82.6522 276.721 82.3278C277.541 81.8608 278.364 81.5945 279.19 81.5288C280.012 81.4613 280.796 81.5532 281.539 81.8045ZM288.992 77.5574L287.892 78.4548C287.664 78.3891 287.413 78.3469 287.136 78.3282C286.863 78.3076 286.575 78.3273 286.272 78.3873C285.97 78.4473 285.665 78.5645 285.359 78.7389C284.941 78.9771 284.686 79.2293 284.594 79.4956C284.499 79.7601 284.597 79.9757 284.89 80.1427C285.144 80.2871 285.441 80.3499 285.784 80.3311C286.126 80.3124 286.555 80.2121 287.072 80.0301L288.553 79.5013C289.412 79.1956 290.18 79.0408 290.858 79.0371C291.536 79.0333 292.144 79.1843 292.68 79.49C293.134 79.7488 293.407 80.0545 293.499 80.4071C293.592 80.7559 293.504 81.1207 293.238 81.5014C292.975 81.8802 292.537 82.2441 291.925 82.5929C291.076 83.0768 290.202 83.3684 289.303 83.4678C288.402 83.5653 287.554 83.4575 286.761 83.1443L287.971 82.2075C288.431 82.3688 288.895 82.4251 289.363 82.3763C289.827 82.3257 290.281 82.1737 290.725 81.9206C291.209 81.6449 291.495 81.3673 291.584 81.0879C291.67 80.8066 291.566 80.5824 291.273 80.4155C291.036 80.2805 290.748 80.2177 290.409 80.2271C290.073 80.2346 289.684 80.318 289.239 80.4774L287.674 81.0485C286.806 81.3598 286.026 81.5117 285.334 81.5042C284.647 81.4948 284.033 81.3364 283.493 81.0288C283.046 80.7737 282.779 80.4793 282.693 80.1455C282.608 79.8116 282.692 79.4656 282.945 79.1074C283.195 78.7473 283.605 78.4051 284.174 78.0806C284.994 77.6137 285.817 77.3473 286.643 77.2817C287.465 77.2142 288.249 77.3061 288.992 77.5574ZM299.842 78.0813C299.131 78.4864 298.348 78.7471 297.492 78.8634C296.636 78.9797 295.769 78.9543 294.89 78.7874C294.012 78.6205 293.181 78.3139 292.397 77.8675C291.611 77.4193 291.069 76.9439 290.773 76.4413C290.477 75.9387 290.431 75.4436 290.635 74.9559C290.839 74.4683 291.297 74.022 292.007 73.6169C292.718 73.2118 293.502 72.9511 294.357 72.8348C295.213 72.7186 296.082 72.7448 296.964 72.9136C297.846 73.0824 298.68 73.3909 299.466 73.8391C300.25 74.2855 300.788 74.759 301.081 75.2598C301.374 75.7605 301.418 76.2547 301.214 76.7423C301.01 77.2299 300.553 77.6762 299.842 78.0813ZM298.608 77.3724C299.068 77.1099 299.328 76.8229 299.387 76.5116C299.447 76.2003 299.346 75.888 299.086 75.5748C298.83 75.2598 298.458 74.9634 297.971 74.6859C297.487 74.4102 296.969 74.1992 296.416 74.0529C295.863 73.9029 295.312 73.8438 294.762 73.8757C294.212 73.9076 293.707 74.0548 293.246 74.3174C292.782 74.5818 292.521 74.8715 292.462 75.1866C292.406 75.4998 292.508 75.8149 292.768 76.1318C293.028 76.445 293.399 76.7395 293.883 77.0152C294.37 77.2927 294.889 77.5056 295.438 77.6537C295.991 77.8 296.541 77.8563 297.087 77.8225C297.637 77.7869 298.143 77.6369 298.608 77.3724ZM304.821 68.5371L303.721 69.4345C303.493 69.3688 303.242 69.3266 302.965 69.3079C302.692 69.2872 302.404 69.3069 302.101 69.3669C301.799 69.427 301.494 69.5442 301.188 69.7186C300.77 69.9568 300.515 70.209 300.423 70.4753C300.327 70.7398 300.426 70.9554 300.719 71.1223C300.973 71.2668 301.27 71.3296 301.613 71.3108C301.955 71.2921 302.384 71.1917 302.901 71.0098L304.382 70.4809C305.241 70.1753 306.009 70.0205 306.687 70.0168C307.365 70.013 307.973 70.164 308.509 70.4697C308.963 70.7285 309.236 71.0342 309.328 71.3868C309.421 71.7356 309.333 72.1004 309.067 72.4811C308.804 72.8599 308.366 73.2238 307.754 73.5726C306.905 74.0564 306.031 74.3481 305.132 74.4475C304.231 74.545 303.383 74.4372 302.59 74.124L303.8 73.1872C304.26 73.3485 304.724 73.4047 305.192 73.356C305.656 73.3053 306.11 73.1534 306.554 72.9002C307.038 72.6246 307.324 72.347 307.413 72.0676C307.499 71.7862 307.395 71.5621 307.102 71.3952C306.865 71.2602 306.577 71.1974 306.238 71.2067C305.902 71.2142 305.512 71.2977 305.068 71.4571L303.503 72.0282C302.634 72.3395 301.855 72.4914 301.163 72.4839C300.476 72.4745 299.862 72.3161 299.322 72.0085C298.875 71.7534 298.608 71.459 298.522 71.1252C298.437 70.7913 298.521 70.4453 298.774 70.0871C299.024 69.727 299.434 69.3848 300.003 69.0603C300.823 68.5933 301.646 68.327 302.472 68.2614C303.294 68.1939 304.078 68.2858 304.821 68.5371Z" fill="black"/>
</g>
</g>
</g>
<g id="Elefy card_2">
<g clip-path="url(#clip2_3281_1457)">
<rect width="343.811" height="199.89" rx="16" transform="matrix(0.868829 0.495112 -0.868829 0.495112 -19.6747 90.8068)" fill="#E5E5E5"/>
<g id="Left_2">
<rect width="80" height="199.89" transform="matrix(0.868829 0.495112 -0.868829 0.495112 -19.6747 90.8068)" fill="#171717"/>
<path id="Elefy_2" d="M-29.8588 115.7L-19.7488 109.939L-13.4103 113.551L-14.7234 114.299L-19.5365 111.556L-22.6169 113.312L-18.1345 115.866L-19.4427 116.612L-23.9251 114.057L-27.0203 115.821L-22.1479 118.598L-23.4611 119.346L-29.8588 115.7ZM-10.0152 115.486L-20.1252 121.247L-21.6012 120.406L-11.4912 114.645L-10.0152 115.486ZM-15.0245 124.328C-15.7716 123.902 -16.2554 123.445 -16.4759 122.955C-16.6898 122.466 -16.6519 121.972 -16.3623 121.473C-16.0661 120.974 -15.5248 120.5 -14.7382 120.052C-13.9615 119.61 -13.1322 119.302 -12.2502 119.129C-11.3649 118.959 -10.4944 118.928 -9.63878 119.037C-8.77982 119.147 -7.99821 119.403 -7.29393 119.805C-6.86609 120.048 -6.52218 120.325 -6.26219 120.634C-6.0022 120.944 -5.86398 121.276 -5.84752 121.63C-5.83107 121.985 -5.97258 122.352 -6.27207 122.733C-6.56826 123.112 -7.06026 123.497 -7.74809 123.889L-8.27136 124.187L-14.2989 120.753L-13.1931 120.122L-8.61198 122.733C-8.22364 122.512 -7.95871 122.271 -7.8172 122.01C-7.67239 121.748 -7.65594 121.485 -7.76783 121.222C-7.87644 120.962 -8.12162 120.723 -8.50338 120.505C-8.91805 120.269 -9.38208 120.121 -9.89548 120.061C-10.4023 120.001 -10.9025 120.016 -11.3962 120.106C-11.8833 120.196 -12.316 120.348 -12.6945 120.564L-13.5584 121.056C-14.0652 121.345 -14.4075 121.642 -14.5852 121.945C-14.7596 122.251 -14.7794 122.549 -14.6444 122.84C-14.5062 123.129 -14.2215 123.396 -13.7904 123.642C-13.5107 123.801 -13.2161 123.924 -12.9068 124.01C-12.5941 124.095 -12.2732 124.139 -11.9441 124.142C-11.615 124.146 -11.2876 124.106 -10.9618 124.021L-9.81649 124.961C-10.3398 125.132 -10.9009 125.223 -11.4999 125.234C-12.0922 125.245 -12.6912 125.176 -13.2967 125.026C-13.8957 124.876 -14.4716 124.643 -15.0245 124.328ZM1.21048 124.763L0.0257127 125.439L-4.2592 122.997L-3.07443 122.322L1.21048 124.763ZM-9.48204 127.312L-1.02083 122.49C-0.546924 122.22 -0.0499801 122.055 0.470001 121.995C0.993273 121.933 1.50338 121.956 2.00032 122.063C2.50056 122.168 2.95143 122.335 3.35294 122.564C3.64913 122.732 3.87785 122.891 4.03911 123.039C4.20366 123.185 4.3172 123.299 4.37973 123.379L2.83954 123.863C2.79017 123.813 2.72435 123.749 2.64207 123.672C2.56309 123.593 2.44626 123.51 2.29158 123.422C1.93286 123.217 1.5873 123.122 1.25491 123.135C0.925807 123.15 0.593414 123.253 0.25773 123.444L-8.00602 128.153L-9.48204 127.312ZM-6.75955 132.104C-6.98005 131.979 -7.1627 131.854 -7.3075 131.73C-7.4556 131.608 -7.55433 131.511 -7.6037 131.438L-6.03882 130.951C-5.84135 131.146 -5.63237 131.301 -5.41188 131.415C-5.19138 131.53 -4.92645 131.59 -4.61709 131.598C-4.30445 131.607 -3.91775 131.552 -3.45701 131.432L-2.77083 131.249L2.13608 125.291L3.71577 126.191L-0.248265 130.639L-0.16928 130.684L7.63537 128.425L9.22 129.328L-2.49932 132.445C-3.03905 132.587 -3.55739 132.673 -4.05433 132.701C-4.55457 132.731 -5.02847 132.697 -5.47605 132.599C-5.92363 132.502 -6.35146 132.337 -6.75955 132.104Z" fill="white"/>
</g>
<g id="Right_2" clip-path="url(#clip3_3281_1457)">
<path id="Ivan Passos_2" d="M54.7583 152.398L44.6482 158.159L43.1229 157.29L53.2329 151.528L54.7583 152.398ZM60.8203 158.733L50.4882 161.487L48.9085 160.587L53.7364 154.696L55.321 155.599L51.4064 160.018L51.4853 160.063L59.2357 157.83L60.8203 158.733ZM56.4465 165.074C55.9661 164.8 55.6205 164.502 55.4099 164.179C55.2025 163.855 55.1565 163.53 55.2717 163.206C55.3901 162.883 55.6978 162.58 56.1948 162.297C56.6226 162.053 57.057 161.899 57.498 161.836C57.939 161.772 58.38 161.774 58.821 161.841C59.262 161.909 59.6964 162.018 60.1243 162.168C60.5521 162.318 60.9668 162.483 61.3683 162.663C61.8751 162.892 62.2865 163.077 62.6024 163.22C62.9216 163.36 63.1849 163.445 63.3922 163.473C63.5996 163.501 63.7921 163.464 63.9698 163.363L64.0044 163.343C64.4355 163.098 64.6478 162.838 64.6412 162.564C64.6379 162.292 64.3977 162.02 63.9205 161.748C63.4235 161.465 62.9216 161.305 62.4148 161.267C61.9146 161.23 61.4769 161.256 61.1017 161.346L60.0305 160.376C60.6558 160.207 61.2679 160.132 61.8669 160.151C62.4724 160.169 63.0467 160.26 63.5897 160.423C64.136 160.585 64.6379 160.796 65.0953 161.056C65.3981 161.229 65.6828 161.432 65.9494 161.667C66.2225 161.901 66.4134 162.156 66.522 162.432C66.6339 162.71 66.6109 163.002 66.4529 163.31C66.2982 163.615 65.9444 163.926 65.3915 164.241L60.3563 167.11L58.9148 166.289L59.9515 165.698L59.8922 165.664C59.6059 165.719 59.2752 165.744 58.9 165.74C58.5248 165.737 58.1266 165.684 57.7054 165.583C57.2841 165.481 56.8645 165.312 56.4465 165.074ZM57.9522 164.581C58.3603 164.814 58.7898 164.967 59.2406 165.04C59.6948 165.115 60.1276 165.121 60.5389 165.06C60.9569 164.998 61.3156 164.881 61.6151 164.711L62.5925 164.154C62.4872 164.154 62.3358 164.124 62.1384 164.064C61.9475 164.004 61.7402 163.929 61.5164 163.839C61.2959 163.747 61.082 163.657 60.8746 163.569C60.6706 163.479 60.4994 163.404 60.3612 163.343C60.0387 163.201 59.7162 163.087 59.3937 163C59.0744 162.916 58.7634 162.879 58.4607 162.891C58.1645 162.902 57.8847 162.982 57.6214 163.133C57.2561 163.341 57.1146 163.575 57.1969 163.836C57.2825 164.095 57.5342 164.343 57.9522 164.581ZM68.3004 166.506L63.7983 169.072L62.3223 168.231L69.9048 163.91L71.3215 164.717L70.0874 165.42L70.1812 165.474C70.7571 165.344 71.3528 165.316 71.9682 165.389C72.5869 165.464 73.181 165.664 73.7503 165.989C74.267 166.283 74.6109 166.603 74.7821 166.948C74.9565 167.291 74.9384 167.645 74.7278 168.008C74.5171 168.372 74.0992 168.732 73.4739 169.089L68.6509 171.837L67.1749 170.996L71.8201 168.349C72.3697 168.036 72.6561 167.709 72.6791 167.37C72.7054 167.028 72.4685 166.715 71.9682 166.43C71.626 166.235 71.2475 166.104 70.8328 166.036C70.4215 165.971 69.9953 165.975 69.5543 166.05C69.1199 166.125 68.7019 166.277 68.3004 166.506ZM74.4279 175.129L84.5379 169.368L88.1415 171.421C88.9281 171.87 89.4366 172.323 89.6669 172.78C89.8973 173.238 89.8924 173.681 89.6521 174.111C89.4152 174.538 88.9873 174.928 88.3686 175.281C87.7466 175.635 87.0572 175.88 86.3002 176.015C85.5499 176.15 84.7699 176.152 83.9603 176.021C83.1573 175.89 82.3642 175.601 81.5809 175.154L79.1028 173.742L80.3961 173.005L82.736 174.339C83.233 174.622 83.7217 174.803 84.2022 174.882C84.686 174.958 85.15 174.953 85.5943 174.865C86.0386 174.777 86.4516 174.624 86.8334 174.406C87.2151 174.189 87.4817 173.954 87.6331 173.703C87.7845 173.452 87.7878 173.189 87.643 172.915C87.5014 172.643 87.1773 172.363 86.6705 172.074L84.7551 170.983L75.9532 175.998L74.4279 175.129ZM85.1722 181.443C84.6917 181.169 84.3462 180.871 84.1355 180.549C83.9282 180.224 83.8821 179.9 83.9973 179.575C84.1158 179.253 84.4235 178.95 84.9205 178.667C85.3483 178.423 85.7827 178.269 86.2237 178.205C86.6647 178.142 87.1057 178.143 87.5467 178.211C87.9877 178.278 88.4221 178.387 88.8499 178.537C89.2778 178.687 89.6924 178.852 90.0939 179.032C90.6008 179.261 91.0121 179.447 91.3281 179.589C91.6473 179.73 91.9106 179.814 92.1179 179.843C92.3253 179.871 92.5178 179.834 92.6955 179.733L92.73 179.713C93.1612 179.467 93.3734 179.208 93.3669 178.934C93.3636 178.662 93.1233 178.39 92.6461 178.118C92.1492 177.835 91.6473 177.675 91.1405 177.637C90.6402 177.6 90.2025 177.626 89.8274 177.716L88.7561 176.745C89.3814 176.576 89.9936 176.501 90.5925 176.52C91.1981 176.539 91.7724 176.63 92.3154 176.793C92.8617 176.954 93.3636 177.165 93.821 177.426C94.1238 177.599 94.4085 177.802 94.675 178.036C94.9482 178.271 95.1391 178.526 95.2477 178.802C95.3596 179.079 95.3365 179.372 95.1786 179.679C95.0239 179.985 94.6701 180.295 94.1172 180.611L89.0819 183.48L87.6405 182.658L88.6772 182.068L88.6179 182.034C88.3316 182.088 88.0008 182.114 87.6257 182.11C87.2505 182.106 86.8523 182.054 86.431 181.952C86.0098 181.851 85.5902 181.681 85.1722 181.443ZM86.6779 180.951C87.0859 181.183 87.5154 181.336 87.9663 181.409C88.4205 181.484 88.8532 181.491 89.2646 181.429C89.6826 181.367 90.0413 181.251 90.3408 181.08L91.3182 180.523C91.2129 180.523 91.0615 180.493 90.864 180.433C90.6732 180.373 90.4658 180.298 90.242 180.208C90.0215 180.116 89.8076 180.026 89.6003 179.938C89.3962 179.848 89.2251 179.773 89.0869 179.713C88.7644 179.571 88.4418 179.456 88.1193 179.37C87.8001 179.286 87.4891 179.249 87.1863 179.26C86.8901 179.271 86.6104 179.352 86.3471 179.502C85.9818 179.71 85.8403 179.945 85.9226 180.205C86.0081 180.464 86.2599 180.713 86.6779 180.951ZM102.461 184.572L100.886 183.945C101.002 183.815 101.076 183.672 101.109 183.514C101.145 183.359 101.11 183.195 101.005 183.022C100.9 182.85 100.694 182.676 100.388 182.502C99.9699 182.263 99.5272 182.118 99.0599 182.066C98.5959 182.011 98.2174 182.067 97.9245 182.234C97.6711 182.379 97.5609 182.549 97.5938 182.744C97.6267 182.939 97.8027 183.183 98.122 183.478L99.05 184.322C99.5865 184.811 99.858 185.249 99.8646 185.635C99.8711 186.022 99.6062 186.368 99.0698 186.674C98.6156 186.932 98.0792 187.088 97.4605 187.141C96.8483 187.193 96.2082 187.143 95.5402 186.991C94.8754 186.841 94.2369 186.592 93.6248 186.243C92.7757 185.759 92.264 185.261 92.0895 184.749C91.9184 184.235 92.1076 183.753 92.6572 183.301L94.3011 183.99C94.0181 184.252 93.9193 184.517 94.0049 184.783C94.0938 185.048 94.3603 185.306 94.8046 185.56C95.2884 185.835 95.7755 185.998 96.2658 186.049C96.7595 186.098 97.1528 186.039 97.4457 185.872C97.6826 185.737 97.7929 185.573 97.7764 185.379C97.7632 185.188 97.6168 184.966 97.3371 184.713L96.3349 183.821C95.7886 183.326 95.5221 182.881 95.5352 182.488C95.5517 182.096 95.8298 181.746 96.3695 181.438C96.8171 181.183 97.3338 181.031 97.9196 180.983C98.5054 180.934 99.1126 180.982 99.7412 181.126C100.373 181.269 100.974 181.502 101.543 181.826C102.362 182.293 102.83 182.762 102.945 183.233C103.063 183.702 102.902 184.148 102.461 184.572ZM109.914 188.819L108.339 188.192C108.455 188.063 108.529 187.919 108.561 187.762C108.598 187.606 108.563 187.442 108.458 187.269C108.353 187.097 108.147 186.923 107.841 186.749C107.423 186.511 106.98 186.365 106.513 186.313C106.049 186.258 105.67 186.315 105.377 186.482C105.124 186.626 105.014 186.796 105.047 186.991C105.08 187.186 105.256 187.43 105.575 187.725L106.503 188.569C107.039 189.058 107.311 189.496 107.317 189.883C107.324 190.269 107.059 190.615 106.523 190.921C106.069 191.179 105.532 191.335 104.913 191.388C104.301 191.44 103.661 191.39 102.993 191.239C102.328 191.089 101.69 190.839 101.078 190.49C100.229 190.006 99.7169 189.508 99.5425 188.996C99.3713 188.483 99.5606 188 100.11 187.548L101.754 188.237C101.471 188.499 101.372 188.764 101.458 189.03C101.547 189.295 101.813 189.553 102.258 189.807C102.741 190.082 103.228 190.246 103.719 190.296C104.212 190.345 104.606 190.286 104.899 190.119C105.136 189.984 105.246 189.82 105.229 189.627C105.216 189.435 105.07 189.213 104.79 188.96L103.788 188.068C103.242 187.573 102.975 187.129 102.988 186.735C103.005 186.343 103.283 185.993 103.822 185.685C104.27 185.43 104.787 185.278 105.372 185.23C105.958 185.181 106.565 185.229 107.194 185.373C107.826 185.516 108.427 185.749 108.996 186.074C109.815 186.541 110.283 187.009 110.398 187.48C110.516 187.949 110.355 188.395 109.914 188.819ZM108.995 195.002C108.284 194.597 107.826 194.15 107.622 193.663C107.418 193.175 107.463 192.681 107.756 192.18C108.049 191.68 108.587 191.206 109.37 190.76C110.156 190.311 110.991 190.003 111.873 189.834C112.755 189.665 113.623 189.639 114.479 189.755C115.335 189.872 116.118 190.132 116.829 190.537C117.54 190.942 117.997 191.389 118.201 191.876C118.405 192.364 118.359 192.859 118.063 193.362C117.767 193.864 117.226 194.34 116.439 194.788C115.656 195.234 114.825 195.541 113.946 195.708C113.067 195.875 112.2 195.9 111.344 195.784C110.489 195.668 109.706 195.407 108.995 195.002ZM110.239 194.299C110.699 194.561 111.203 194.709 111.749 194.743C112.296 194.777 112.844 194.72 113.393 194.571C113.946 194.425 114.466 194.213 114.953 193.936C115.437 193.66 115.807 193.365 116.064 193.049C116.327 192.734 116.431 192.42 116.375 192.107C116.319 191.794 116.06 191.506 115.6 191.243C115.136 190.979 114.627 190.83 114.074 190.796C113.525 190.764 112.972 190.822 112.416 190.971C111.866 191.119 111.349 191.331 110.866 191.606C110.379 191.884 110.005 192.179 109.745 192.492C109.488 192.808 109.39 193.121 109.449 193.432C109.511 193.745 109.775 194.034 110.239 194.299ZM125.743 197.84L124.168 197.212C124.284 197.083 124.358 196.939 124.39 196.782C124.427 196.626 124.392 196.462 124.287 196.29C124.182 196.117 123.976 195.944 123.67 195.769C123.252 195.531 122.809 195.386 122.342 195.333C121.878 195.279 121.499 195.335 121.206 195.502C120.953 195.646 120.843 195.816 120.876 196.011C120.909 196.206 121.085 196.451 121.404 196.745L122.332 197.589C122.868 198.079 123.14 198.517 123.146 198.903C123.153 199.289 122.888 199.635 122.352 199.941C121.898 200.2 121.361 200.355 120.742 200.408C120.13 200.46 119.49 200.411 118.822 200.259C118.157 200.109 117.519 199.859 116.907 199.511C116.058 199.027 115.546 198.529 115.371 198.017C115.2 197.503 115.39 197.02 115.939 196.568L117.583 197.257C117.3 197.52 117.201 197.784 117.287 198.051C117.376 198.315 117.642 198.574 118.087 198.827C118.57 199.103 119.057 199.266 119.548 199.316C120.041 199.365 120.435 199.306 120.728 199.139C120.965 199.004 121.075 198.84 121.058 198.647C121.045 198.456 120.899 198.233 120.619 197.98L119.617 197.088C119.071 196.593 118.804 196.149 118.817 195.755C118.834 195.363 119.112 195.013 119.651 194.706C120.099 194.451 120.616 194.299 121.201 194.25C121.787 194.201 122.394 194.249 123.023 194.393C123.655 194.536 124.256 194.769 124.825 195.094C125.644 195.561 126.112 196.03 126.227 196.501C126.345 196.969 126.184 197.416 125.743 197.84Z" fill="black"/>
</g>
</g>
</g>
<g id="Elefy card_3">
<g clip-path="url(#clip4_3281_1457)">
<rect width="343.811" height="199.89" rx="16" transform="matrix(0.868837 0.495098 -0.868837 0.495098 171.555 -240)" fill="#E5E5E5"/>
</g>
</g>
<g id="Elefy card_4">
<g clip-path="url(#clip5_3281_1457)">
<rect width="343.811" height="199.89" rx="16" transform="matrix(-0.868829 -0.495112 0.868829 -0.495112 104.096 135.51)" fill="#E5E5E5"/>
<g id="Left_3">
<rect width="80" height="199.89" transform="matrix(-0.868829 -0.495112 0.868829 -0.495112 104.096 135.51)" fill="#171717"/>
<path id="Elefy_3" d="M114.28 110.617L104.17 116.378L97.8319 112.766L99.1451 112.018L103.958 114.761L107.039 113.005L102.556 110.451L103.864 109.705L108.347 112.26L111.442 110.496L106.57 107.719L107.883 106.971L114.28 110.617ZM94.4368 110.831L104.547 105.07L106.023 105.911L95.9129 111.673L94.4368 110.831ZM99.4462 101.989C100.193 102.415 100.677 102.872 100.898 103.362C101.111 103.851 101.074 104.346 100.784 104.844C100.488 105.343 99.9464 105.817 99.1599 106.265C98.3832 106.708 97.5538 107.015 96.6719 107.188C95.7866 107.358 94.9161 107.389 94.0604 107.281C93.2015 107.17 92.4199 106.914 91.7156 106.513C91.2877 106.269 90.9438 105.992 90.6838 105.683C90.4238 105.373 90.2856 105.041 90.2692 104.687C90.2527 104.332 90.3942 103.965 90.6937 103.584C90.9899 103.205 91.4819 102.82 92.1697 102.428L92.693 102.13L98.7205 105.565L97.6147 106.195L93.0336 103.584C92.6453 103.805 92.3804 104.046 92.2388 104.307C92.094 104.57 92.0776 104.832 92.1895 105.095C92.2981 105.355 92.5433 105.595 92.925 105.812C93.3397 106.048 93.8037 106.197 94.3171 106.257C94.8239 106.317 95.3242 106.302 95.8178 106.212C96.3049 106.122 96.7377 105.969 97.1161 105.753L97.98 105.261C98.4868 104.972 98.8291 104.676 99.0068 104.372C99.1813 104.066 99.201 103.768 99.0661 103.477C98.9278 103.188 98.6432 102.921 98.212 102.675C97.9323 102.516 97.6378 102.393 97.3284 102.307C97.0158 102.223 96.6949 102.178 96.3658 102.175C96.0367 102.171 95.7092 102.211 95.3834 102.296L94.2381 101.356C94.7614 101.185 95.3225 101.094 95.9215 101.083C96.5139 101.072 97.1128 101.141 97.7184 101.291C98.3174 101.441 98.8933 101.674 99.4462 101.989ZM83.2112 101.554L84.3959 100.879L88.6808 103.32L87.4961 103.996L83.2112 101.554ZM93.9037 99.005L85.4425 103.827C84.9686 104.097 84.4716 104.262 83.9516 104.322C83.4284 104.384 82.9183 104.361 82.4213 104.254C81.9211 104.149 81.4702 103.982 81.0687 103.754C80.7725 103.585 80.5438 103.426 80.3825 103.278C80.218 103.132 80.1044 103.018 80.0419 102.938L81.5821 102.454C81.6315 102.505 81.6973 102.568 81.7796 102.645C81.8586 102.724 81.9754 102.807 82.1301 102.896C82.4888 103.1 82.8343 103.196 83.1667 103.183C83.4958 103.168 83.8282 103.064 84.1639 102.873L92.4277 98.1639L93.9037 99.005ZM91.1812 94.2128C91.4017 94.3385 91.5843 94.4632 91.7292 94.587C91.8772 94.7089 91.976 94.8064 92.0253 94.8796L90.4605 95.3662C90.263 95.1712 90.054 95.0165 89.8335 94.9021C89.613 94.7877 89.3481 94.7267 89.0387 94.7192C88.7261 94.7098 88.3394 94.7652 87.8787 94.8852L87.1925 95.068L82.2856 101.026L80.7059 100.126L84.6699 95.6785L84.5909 95.6335L76.7863 97.8924L75.2016 96.9894L86.921 93.8725C87.4607 93.7299 87.979 93.6446 88.476 93.6165C88.9762 93.5865 89.4501 93.6202 89.8977 93.7177C90.3453 93.8153 90.7731 93.9803 91.1812 94.2128Z" fill="white"/>
<g id="content_2">
<rect width="72" height="48" rx="24" transform="matrix(-0.868829 -0.495112 0.868829 -0.495112 206.523 59.3174)" fill="#171717"/>
<g id="Exclude_2">
<path d="M209.852 21.772C202.592 21.2568 194.984 22.5964 189.386 25.7864C183.788 28.9764 181.437 33.3121 182.342 37.4494C189.602 37.9647 197.21 36.625 202.808 33.435C208.406 30.2451 210.757 25.9094 209.852 21.772Z" fill="#FF5F00"/>
<path fill-rule="evenodd" clip-rule="evenodd" d="M209.852 21.772C210.757 25.9094 208.406 30.2451 202.808 33.435C197.21 36.625 189.602 37.9647 182.342 37.4494C182.988 40.405 185.295 43.2594 189.266 45.5226C198.797 50.9537 214.303 50.9232 223.9 45.4543C233.496 39.9854 233.55 31.1493 224.019 25.7181C220.048 23.455 215.039 22.1402 209.852 21.772Z" fill="#EB001B"/>
<path d="M189.386 25.7864C194.984 22.5964 202.592 21.2568 209.852 21.772C209.206 18.8164 206.899 15.962 202.928 13.6989C193.397 8.26771 177.891 8.29829 168.295 13.7671C158.698 19.236 158.644 28.0722 168.175 33.5033C172.146 35.7665 177.155 37.0813 182.342 37.4494C181.437 33.3121 183.788 28.9764 189.386 25.7864Z" fill="#F79E1B"/>
</g>
</g>
</g>
<g id="Right_3" clip-path="url(#clip6_3281_1457)">
<path id="Ivan Passos_3" d="M29.6634 73.9196L39.7734 68.1583L41.2988 69.0276L31.1888 74.7889L29.6634 73.9196ZM23.6013 67.5844L33.9335 64.8304L35.5132 65.7306L30.6853 71.6213L29.1006 70.7183L33.0153 66.2988L32.9363 66.2538L25.186 68.4874L23.6013 67.5844ZM27.9751 61.2436C28.4556 61.5174 28.8011 61.8156 29.0118 62.1382C29.2191 62.4626 29.2652 62.7871 29.15 63.1115C29.0315 63.4341 28.7238 63.737 28.2269 64.0202C27.799 64.264 27.3646 64.4178 26.9236 64.4815C26.4826 64.5453 26.0416 64.5434 25.6006 64.4759C25.1596 64.4084 24.7252 64.2996 24.2974 64.1496C23.8695 63.9995 23.4549 63.8345 23.0534 63.6545C22.5466 63.4257 22.1352 63.24 21.8192 63.0975C21.5 62.9568 21.2367 62.8724 21.0294 62.8443C20.8221 62.8162 20.6295 62.8527 20.4518 62.954L20.4173 62.9737C19.9861 63.2194 19.7739 63.4791 19.7805 63.7529C19.7837 64.0249 20.024 64.2968 20.5012 64.5687C20.9981 64.8519 21.5 65.0123 22.0068 65.0498C22.5071 65.0873 22.9448 65.061 23.3199 64.971L24.3912 65.9415C23.7659 66.1103 23.1538 66.1854 22.5548 66.1666C21.9492 66.1478 21.375 66.0569 20.8319 65.8937C20.2856 65.7324 19.7837 65.5215 19.3263 65.2608C19.0235 65.0882 18.7388 64.8847 18.4723 64.6503C18.1991 64.4159 18.0082 64.1608 17.8996 63.8851C17.7877 63.6076 17.8108 63.315 17.9688 63.0074C18.1234 62.7018 18.4772 62.3914 19.0301 62.0763L24.0654 59.2069L25.5068 60.0283L24.4702 60.6191L24.5294 60.6529C24.8157 60.5985 25.1465 60.5731 25.5216 60.5769C25.8968 60.5806 26.295 60.6332 26.7163 60.7344C27.1375 60.8357 27.5571 61.0054 27.9751 61.2436ZM26.4695 61.7359C26.0614 61.5034 25.6319 61.3505 25.181 61.2774C24.7269 61.2024 24.2941 61.1958 23.8827 61.2577C23.4648 61.3196 23.106 61.4358 22.8066 61.6065L21.8291 62.1635C21.9344 62.1635 22.0858 62.1935 22.2833 62.2535C22.4742 62.3135 22.6815 62.3886 22.9053 62.4786C23.1258 62.5705 23.3397 62.6605 23.547 62.7486C23.7511 62.8387 23.9222 62.9137 24.0604 62.9737C24.3829 63.1162 24.7055 63.2306 25.028 63.3169C25.3472 63.4013 25.6582 63.4379 25.961 63.4266C26.2572 63.4154 26.5369 63.3347 26.8002 63.1847C27.1655 62.9765 27.307 62.7421 27.2247 62.4814C27.1392 62.2226 26.8874 61.9741 26.4695 61.7359ZM16.1213 59.811L20.6234 57.2454L22.0994 58.0866L14.5169 62.4075L13.1001 61.6002L14.3342 60.8969L14.2404 60.8434C13.6645 60.9728 13.0688 61.001 12.4534 60.9278C11.8347 60.8528 11.2407 60.6531 10.6713 60.3286C10.1546 60.0342 9.81072 59.7144 9.63959 59.3694C9.46517 59.0262 9.48327 58.6726 9.69389 58.3088C9.90452 57.945 10.3225 57.5849 10.9478 57.2286L15.7708 54.4801L17.2468 55.3213L12.6015 57.9684C12.0519 58.2816 11.7656 58.6079 11.7426 58.9474C11.7162 59.2887 11.9532 59.6019 12.4534 59.887C12.7957 60.082 13.1741 60.2133 13.5888 60.2808C14.0002 60.3465 14.4264 60.3418 14.8674 60.2668C15.3018 60.1917 15.7197 60.0398 16.1213 59.811ZM9.99379 51.1881L-0.116228 56.9494L-3.7199 54.8958C-4.50645 54.4475 -5.01491 53.9946 -5.24528 53.537C-5.47565 53.0794 -5.47072 52.6359 -5.23047 52.2064C-4.99352 51.7788 -4.56569 51.3887 -3.94698 51.0362C-3.32497 50.6817 -2.6355 50.437 -1.87857 50.3019C-1.12822 50.1669 -0.348245 50.165 0.461346 50.2963C1.26436 50.4276 2.05749 50.7164 2.84075 51.1627L5.31889 52.5749L4.02552 53.312L1.68561 51.9786C1.18866 51.6954 0.699945 51.5144 0.219456 51.4356C-0.264324 51.3587 -0.728357 51.3644 -1.17265 51.4525C-1.61693 51.5406 -2.02996 51.6935 -2.41171 51.911C-2.79347 52.1286 -3.06005 52.363 -3.21143 52.6143C-3.36282 52.8656 -3.36611 53.1282 -3.22131 53.402C-3.07979 53.6739 -2.75563 53.9543 -2.24881 54.2431L-0.333435 55.3346L8.4684 50.3188L9.99379 51.1881ZM-0.750571 44.874C-0.270082 45.1478 0.0754747 45.446 0.2861 45.7686C0.493434 46.093 0.539508 46.4175 0.424323 46.7419C0.305846 47.0645 -0.00186449 47.3674 -0.498809 47.6505C-0.926641 47.8943 -1.36106 48.0481 -1.80205 48.1119C-2.24305 48.1757 -2.68405 48.1738 -3.12504 48.1063C-3.56604 48.0388 -4.00045 47.93 -4.42829 47.7799C-4.85612 47.6299 -5.27079 47.4649 -5.67229 47.2848C-6.17911 47.056 -6.59049 46.8704 -6.90643 46.7278C-7.22565 46.5872 -7.48894 46.5028 -7.69627 46.4747C-7.9036 46.4465 -8.09613 46.4831 -8.27384 46.5844L-8.3084 46.6041C-8.73952 46.8497 -8.95179 47.1095 -8.94521 47.3833C-8.94192 47.6552 -8.70168 47.9272 -8.22448 48.1991C-7.72753 48.4823 -7.22565 48.6426 -6.71884 48.6802C-6.2186 48.7177 -5.7809 48.6914 -5.40572 48.6014L-4.33449 49.5719C-4.95979 49.7407 -5.57192 49.8157 -6.17088 49.797C-6.77643 49.7782 -7.35071 49.6873 -7.89373 49.5241C-8.44004 49.3628 -8.94192 49.1518 -9.39937 48.8911C-9.70215 48.7186 -9.98682 48.5151 -10.2534 48.2807C-10.5265 48.0463 -10.7174 47.7912 -10.826 47.5155C-10.9379 47.238 -10.9149 46.9454 -10.7569 46.6378C-10.6022 46.3321 -10.2485 46.0217 -9.69556 45.7067L-4.6603 42.8373L-3.21884 43.6587L-4.25551 44.2495L-4.19627 44.2832C-3.90995 44.2288 -3.5792 44.2035 -3.20403 44.2073C-2.82885 44.211 -2.43064 44.2635 -2.00939 44.3648C-1.58814 44.4661 -1.16853 44.6358 -0.750571 44.874ZM-2.25621 45.3663C-2.6643 45.1337 -3.09378 44.9809 -3.54465 44.9077C-3.99881 44.8327 -4.43158 44.8262 -4.84296 44.888C-5.26091 44.9499 -5.61964 45.0662 -5.91912 45.2369L-6.89655 45.7939C-6.79124 45.7939 -6.63985 45.8239 -6.44239 45.8839C-6.25151 45.9439 -6.04418 46.0189 -5.82039 46.1089C-5.59989 46.2008 -5.38597 46.2909 -5.17864 46.379C-4.9746 46.469 -4.80346 46.544 -4.66524 46.6041C-4.34272 46.7466 -4.0202 46.861 -3.69768 46.9473C-3.37845 47.0317 -3.06745 47.0682 -2.76468 47.057C-2.46848 47.0457 -2.18875 46.9651 -1.92547 46.815C-1.56016 46.6069 -1.41865 46.3724 -1.50092 46.1118C-1.58649 45.8529 -1.83825 45.6045 -2.25621 45.3663ZM-18.0395 41.7451L-16.4648 42.3724C-16.58 42.5018 -16.654 42.6453 -16.6869 42.8028C-16.7231 42.9585 -16.6886 43.1226 -16.5833 43.2951C-16.4779 43.4676 -16.2723 43.6411 -15.9662 43.8155C-15.5482 44.0537 -15.1056 44.1991 -14.6383 44.2516C-14.1742 44.306 -13.7958 44.2497 -13.5029 44.0828C-13.2495 43.9384 -13.1392 43.7687 -13.1721 43.5736C-13.205 43.3786 -13.3811 43.1338 -13.7003 42.8394L-14.6284 41.9954C-15.1648 41.506 -15.4363 41.068 -15.4429 40.6817C-15.4495 40.2954 -15.1846 39.9494 -14.6481 39.6437C-14.194 39.3848 -13.6575 39.2292 -13.0388 39.1767C-12.4267 39.1242 -11.7866 39.1739 -11.1185 39.3258C-10.4537 39.4758 -9.81528 39.7252 -9.20315 40.0741C-8.35406 40.5579 -7.84231 41.0559 -7.66788 41.5678C-7.49675 42.0817 -7.68599 42.5646 -8.23559 43.0166L-9.87945 42.3274C-9.59642 42.0648 -9.49769 41.8004 -9.58326 41.5341C-9.67212 41.2696 -9.93869 41.0108 -10.383 40.7577C-10.8668 40.482 -11.3538 40.3188 -11.8442 40.2682C-12.3378 40.2194 -12.7311 40.2785 -13.024 40.4454C-13.261 40.5804 -13.3712 40.7445 -13.3548 40.9377C-13.3416 41.129 -13.1952 41.3512 -12.9154 41.6044L-11.9133 42.4962C-11.367 42.9913 -11.1004 43.4358 -11.1136 43.8296C-11.13 44.2216 -11.4081 44.5713 -11.9479 44.8789C-12.3954 45.134 -12.9121 45.2859 -13.4979 45.3346C-14.0837 45.3834 -14.6909 45.3356 -15.3195 45.1912C-15.9514 45.0486 -16.552 44.8151 -17.1213 44.4907C-17.9408 44.0237 -18.4081 43.5549 -18.5233 43.0841C-18.6418 42.6153 -18.4805 42.1689 -18.0395 41.7451ZM-25.4925 37.4979L-23.9177 38.1253C-24.0329 38.2547 -24.1069 38.3981 -24.1399 38.5557C-24.1761 38.7113 -24.1415 38.8754 -24.0362 39.048C-23.9309 39.2205 -23.7252 39.394 -23.4191 39.5684C-23.0012 39.8066 -22.5585 39.9519 -22.0912 40.0044C-21.6272 40.0588 -21.2487 40.0026 -20.9558 39.8357C-20.7024 39.6912 -20.5921 39.5215 -20.625 39.3265C-20.658 39.1314 -20.834 38.8867 -21.1533 38.5922L-22.0813 37.7483C-22.6178 37.2588 -22.8893 36.8209 -22.8958 36.4346C-22.9024 36.0482 -22.6375 35.7022 -22.1011 35.3965C-21.6469 35.1377 -21.1105 34.9821 -20.4918 34.9295C-19.8796 34.877 -19.2395 34.9267 -18.5714 35.0786C-17.9067 35.2287 -17.2682 35.4781 -16.6561 35.8269C-15.807 36.3108 -15.2952 36.8087 -15.1208 37.3207C-14.9497 37.8346 -15.1389 38.3175 -15.6885 38.7695L-17.3324 38.0803C-17.0493 37.8177 -16.9506 37.5533 -17.0362 37.287C-17.125 37.0225 -17.3916 36.7637 -17.8359 36.5105C-18.3197 36.2348 -18.8068 36.0717 -19.2971 36.021C-19.7908 35.9723 -20.184 36.0314 -20.4769 36.1983C-20.7139 36.3333 -20.8241 36.4974 -20.8077 36.6906C-20.7945 36.8819 -20.6481 37.1041 -20.3683 37.3573L-19.3662 38.249C-18.8199 38.7442 -18.5533 39.1886 -18.5665 39.5825C-18.583 39.9744 -18.8611 40.3242 -19.4008 40.6318C-19.8484 40.8868 -20.3651 41.0387 -20.9509 41.0875C-21.5367 41.1363 -22.1438 41.0884 -22.7724 40.944C-23.4043 40.8015 -24.0049 40.568 -24.5743 40.2436C-25.3937 39.7766 -25.8611 39.3077 -25.9762 38.837C-26.0947 38.3681 -25.9335 37.9218 -25.4925 37.4979ZM-24.573 31.3154C-23.8622 31.7205 -23.4047 32.1668 -23.2007 32.6544C-22.9966 33.142 -23.0411 33.6362 -23.334 34.1369C-23.6269 34.6377 -24.1649 35.1112 -24.9482 35.5576C-25.7348 36.0058 -26.569 36.3143 -27.451 36.4831C-28.333 36.6519 -29.2019 36.6781 -30.0575 36.5619C-30.9132 36.4456 -31.6964 36.1849 -32.4073 35.7798C-33.1182 35.3747 -33.5756 34.9284 -33.7797 34.4408C-33.9837 33.9532 -33.9376 33.458 -33.6414 32.9554C-33.3452 32.4528 -32.8039 31.9774 -32.0173 31.5292C-31.2341 31.0828 -30.4031 30.7762 -29.5244 30.6093C-28.6457 30.4424 -27.7785 30.417 -26.9228 30.5333C-26.0672 30.6496 -25.2839 30.9103 -24.573 31.3154ZM-25.817 32.0187C-26.2778 31.7561 -26.7813 31.6079 -27.3276 31.5742C-27.8739 31.5404 -28.4219 31.5976 -28.9715 31.7458C-29.5244 31.8921 -30.0444 32.104 -30.5314 32.3815C-31.0152 32.6572 -31.3854 32.9526 -31.6421 33.2677C-31.9054 33.5828 -32.0091 33.8969 -31.9531 34.2101C-31.8972 34.5233 -31.6389 34.8112 -31.1781 35.0737C-30.7141 35.3382 -30.2056 35.4873 -29.6527 35.521C-29.1031 35.5529 -28.5502 35.4948 -27.994 35.3466C-27.4444 35.1984 -26.9278 34.9865 -26.444 34.7108C-25.9569 34.4333 -25.5834 34.1379 -25.3234 33.8247C-25.0667 33.5096 -24.968 33.1964 -25.0272 32.8851C-25.0897 32.5719 -25.353 32.2831 -25.817 32.0187ZM-41.3214 28.4776L-39.7467 29.105C-39.8619 29.2344 -39.9359 29.3778 -39.9688 29.5354C-40.005 29.691 -39.9705 29.8551 -39.8652 30.0277C-39.7599 30.2002 -39.5542 30.3737 -39.2481 30.5481C-38.8301 30.7863 -38.3875 30.9316 -37.9202 30.9841C-37.4561 31.0385 -37.0777 30.9822 -36.7848 30.8153C-36.5314 30.6709 -36.4211 30.5012 -36.454 30.3062C-36.4869 30.1111 -36.663 29.8664 -36.9822 29.5719L-37.9103 28.728C-38.4467 28.2385 -38.7182 27.8006 -38.7248 27.4143C-38.7314 27.0279 -38.4665 26.6819 -37.93 26.3762C-37.4759 26.1174 -36.9395 25.9617 -36.3207 25.9092C-35.7086 25.8567 -35.0685 25.9064 -34.4004 26.0583C-33.7356 26.2084 -33.0972 26.4578 -32.4851 26.8066C-31.636 27.2905 -31.1242 27.7884 -30.9498 28.3004C-30.7787 28.8143 -30.9679 29.2972 -31.5175 29.7492L-33.1614 29.0599C-32.8783 28.7974 -32.7796 28.5329 -32.8652 28.2666C-32.954 28.0022 -33.2206 27.7434 -33.6649 27.4902C-34.1487 27.2145 -34.6357 27.0514 -35.1261 27.0007C-35.6198 26.952 -36.013 27.011 -36.3059 27.178C-36.5429 27.313 -36.6531 27.4771 -36.6367 27.6703C-36.6235 27.8615 -36.4771 28.0838 -36.1973 28.337L-35.1952 29.2287C-34.6489 29.7238 -34.3823 30.1683 -34.3955 30.5622C-34.4119 30.9541 -34.69 31.3039 -35.2298 31.6115C-35.6773 31.8665 -36.194 32.0184 -36.7798 32.0672C-37.3656 32.1159 -37.9728 32.0681 -38.6014 31.9237C-39.2333 31.7812 -39.8339 31.5477 -40.4033 31.2232C-41.2227 30.7563 -41.69 30.2874 -41.8052 29.8167C-41.9237 29.3478 -41.7624 28.9015 -41.3214 28.4776Z" fill="black"/>
</g>
</g>
</g>
</g>
<defs>
<clipPath id="clip0_3281_1457">
<rect width="343.811" height="199.89" rx="16" transform="matrix(0.868829 -0.495112 0.868829 0.495112 116.999 151.405)" fill="white"/>
</clipPath>
<clipPath id="clip1_3281_1457">
<rect width="263.811" height="199.89" fill="white" transform="matrix(0.868829 -0.495112 0.868829 0.495112 186.505 111.796)"/>
</clipPath>
<clipPath id="clip2_3281_1457">
<rect width="343.811" height="199.89" rx="16" transform="matrix(0.868829 0.495112 -0.868829 0.495112 -19.6747 90.8068)" fill="white"/>
</clipPath>
<clipPath id="clip3_3281_1457">
<rect width="263.811" height="199.89" fill="white" transform="matrix(0.868829 0.495112 -0.868829 0.495112 49.8316 130.416)"/>
</clipPath>
<clipPath id="clip4_3281_1457">
<rect width="343.811" height="199.89" rx="16" transform="matrix(0.868837 0.495098 -0.868837 0.495098 171.555 -240)" fill="white"/>
</clipPath>
<clipPath id="clip5_3281_1457">
<rect width="343.811" height="199.89" rx="16" transform="matrix(-0.868829 -0.495112 0.868829 -0.495112 104.096 135.51)" fill="white"/>
</clipPath>
<clipPath id="clip6_3281_1457">
<rect width="263.811" height="199.89" fill="white" transform="matrix(-0.868829 -0.495112 0.868829 -0.495112 34.59 95.9014)"/>
</clipPath>
</defs>
</svg>
